<svg width="24" height="24" viewBox="0 0 24 24" fill="none" xmlns="http://www.w3.org/2000/svg">
<path d="M5.9999 3.75C5.60207 3.75 5.22054 3.90804 4.93924 4.18934C4.65793 4.47064 4.4999 4.85218 4.4999 5.25V6C4.4999 6.19891 4.42088 6.38968 4.28023 6.53033C4.13958 6.67098 3.94881 6.75 3.7499 6.75C3.55099 6.75 3.36022 6.67098 3.21957 6.53033C3.07892 6.38968 2.9999 6.19891 2.9999 6V5.25C2.9999 4.45435 3.31597 3.69129 3.87858 3.12868C4.44119 2.56607 5.20425 2.25 5.9999 2.25C6.79555 2.25 7.55861 2.56607 8.12122 3.12868C8.68383 3.69129 8.9999 4.45435 8.9999 5.25V9H16.4999V5.25C16.4999 4.85218 16.3419 4.47064 16.0606 4.18934C15.7793 3.90804 15.3977 3.75 14.9999 3.75C14.6021 3.75 14.2205 3.90804 13.9392 4.18934C13.6579 4.47064 13.4999 4.85218 13.4999 5.25V6C13.4999 6.19891 13.4209 6.38968 13.2802 6.53033C13.1396 6.67098 12.9488 6.75 12.7499 6.75C12.551 6.75 12.3602 6.67098 12.2196 6.53033C12.0789 6.38968 11.9999 6.19891 11.9999 6V5.25C11.9999 4.45435 12.316 3.69129 12.8786 3.12868C13.4412 2.56607 14.2042 2.25 14.9999 2.25C15.7955 2.25 16.5586 2.56607 17.1212 3.12868C17.6838 3.69129 17.9999 4.45435 17.9999 5.25V14.1135C17.5051 14.2046 17.003 14.2503 16.4999 14.25V10.5H8.9999V11.901C8.50639 11.7844 8.00507 11.7037 7.4999 11.6595V5.25C7.4999 4.85218 7.34186 4.47064 7.06056 4.18934C6.77925 3.90804 6.39772 3.75 5.9999 3.75ZM3.4964 15.222C3.34781 15.3543 3.15276 15.4221 2.95416 15.4106C2.75556 15.399 2.56967 15.3091 2.4374 15.1605C2.30512 15.0119 2.23729 14.8169 2.24882 14.6183C2.26035 14.4197 2.35031 14.2338 2.4989 14.1015H2.5004V14.1L2.50265 14.0985L2.5079 14.094L2.52065 14.0828L2.5604 14.0498C2.5929 14.0233 2.63765 13.9888 2.69465 13.9463C2.8079 13.863 2.9699 13.7528 3.17915 13.6328C3.74733 13.3116 4.35999 13.0766 4.99715 12.9353C6.59165 12.5738 8.8514 12.6323 11.6579 14.1158C14.2079 15.4635 16.4594 15.516 18.0659 15.2445C18.7165 15.136 19.353 14.9552 19.9634 14.7053C20.174 14.6177 20.38 14.5196 20.5806 14.4113L20.6061 14.3963L20.6076 14.3948H20.6099C20.7791 14.2994 20.9788 14.2734 21.1668 14.3223C21.3548 14.3711 21.5165 14.491 21.6179 14.6568C21.7193 14.8225 21.7524 15.0211 21.7103 15.2107C21.6682 15.4004 21.5541 15.5663 21.3921 15.6735L21.3891 15.6758L21.3839 15.6788L21.3689 15.6878C21.2977 15.7299 21.2252 15.7697 21.1514 15.807C21.0074 15.882 20.8004 15.9825 20.5364 16.092C20.0091 16.3095 19.2531 16.5645 18.3164 16.7228C16.4354 17.0415 13.8411 16.9665 10.9574 15.4418C8.4554 14.1195 6.5609 14.1188 5.3294 14.3985C4.7054 14.541 4.23365 14.7585 3.9239 14.9355C3.77968 15.0182 3.64113 15.1104 3.50915 15.2115L3.4964 15.222ZM3.4964 19.722C3.34781 19.8543 3.15276 19.9221 2.95416 19.9106C2.75556 19.899 2.56967 19.8091 2.4374 19.6605C2.30512 19.5119 2.23729 19.3169 2.24882 19.1183C2.26035 18.9197 2.35031 18.7338 2.4989 18.6015H2.5004V18.6L2.50265 18.5985L2.5079 18.594L2.52065 18.5828L2.5604 18.5498C2.5929 18.5233 2.63765 18.4888 2.69465 18.4463C2.8079 18.363 2.9699 18.2528 3.17915 18.1328C3.74733 17.8116 4.35999 17.5766 4.99715 17.4353C6.59165 17.0738 8.8514 17.1323 11.6579 18.6158C14.2079 19.9635 16.4594 20.016 18.0659 19.7445C18.7165 19.636 19.353 19.4552 19.9634 19.2053C20.174 19.1177 20.38 19.0196 20.5806 18.9113L20.6061 18.8963L20.6076 18.8948H20.6099C20.7791 18.7994 20.9788 18.7734 21.1668 18.8223C21.3548 18.8711 21.5165 18.991 21.6179 19.1568C21.7193 19.3225 21.7524 19.5211 21.7103 19.7107C21.6682 19.9004 21.5541 20.0663 21.3921 20.1735L21.3891 20.1758L21.3839 20.1788L21.3689 20.1878C21.2977 20.2299 21.2252 20.2697 21.1514 20.307C21.0074 20.382 20.8004 20.4825 20.5364 20.592C20.0091 20.8095 19.2531 21.0645 18.3164 21.2228C16.4354 21.5415 13.8411 21.4665 10.9574 19.9418C8.4554 18.6195 6.5609 18.6188 5.3294 18.8985C4.7054 19.041 4.23365 19.2585 3.9239 19.4355C3.77968 19.5182 3.64113 19.6104 3.50915 19.7115L3.4964 19.722Z" fill="black"/>
</svg>
